<?xml version="1.0" encoding="utf-8"?>
<!-- Generator: Adobe Illustrator 26.4.1, SVG Export Plug-In . SVG Version: 6.00 Build 0)  -->
<svg version="1.1" id="Layer_1" xmlns="http://www.w3.org/2000/svg" xmlns:xlink="http://www.w3.org/1999/xlink" x="0px" y="0px"
	 viewBox="0 0 300 300" style="enable-background:new 0 0 300 300;" xml:space="preserve">
<style type="text/css">
	.st0{fill:#00FFD2;stroke:#00FFD2;stroke-miterlimit:10;}
</style>
<path class="st0" d="M149.4,112.9c-10.3,0-19.6,4.3-26.2,11.1L73.2,94.9c0.8-2.9,1.2-6,1.2-9.2c0-20.2-16.3-36.5-36.5-36.5
	S1.4,65.5,1.4,85.7s16.3,36.5,36.5,36.5c9.9,0,18.9-3.9,25.4-10.3l50.4,29.4c-0.6,2.6-0.9,5.4-0.9,8.1c0,3.6,0.5,7,1.5,10.3
	l-50.2,29.2c-6.6-6.9-15.9-11.1-26.2-11.1c-20.2,0-36.5,16.3-36.5,36.5s16.3,36.5,36.5,36.5s36.5-16.4,36.5-36.5
	c0-2.8-0.3-5.5-0.9-8.1l51.2-29.8c6.5,5.9,15.2,9.6,24.6,9.6c20.2,0,36.5-16.4,36.5-36.5S169.5,112.9,149.4,112.9L149.4,112.9z"/>
<path class="st0" d="M193.9,210.1h100.3c2.5,0,4.5,2,4.5,4.5V245c0,2.5-2,4.5-4.5,4.5H193.9c-2.5,0-4.5-2-4.5-4.5v-30.5
	C189.4,212.1,191.4,210.1,193.9,210.1z"/>
</svg>
