<?xml version="1.0" encoding="UTF-8"?><svg id="Layer_1" xmlns="http://www.w3.org/2000/svg" viewBox="0 0 300 300"><defs><style>.cls-1{fill:#00ffd2;}</style></defs><path class="cls-1" d="M149.35,112.89c-10.29,0-19.59,4.26-26.23,11.11l-49.9-29.06c.77-2.95,1.18-6.04,1.18-9.24,0-20.16-16.35-36.51-36.51-36.51S1.38,65.54,1.38,85.7s16.34,36.51,36.5,36.51c9.89,0,18.86-3.94,25.44-10.31l50.42,29.35c-.6,2.62-.92,5.35-.92,8.14,0,3.57,.51,7.02,1.47,10.28l-50.2,29.23c-6.64-6.85-15.93-11.11-26.23-11.11-20.16,0-36.5,16.34-36.5,36.5s16.34,36.51,36.5,36.51,36.51-16.35,36.51-36.51c0-2.8-.31-5.53-.92-8.14l51.22-29.82c6.5,5.94,15.16,9.57,24.65,9.57,20.16,0,36.51-16.35,36.51-36.51s-16.35-36.5-36.51-36.5Z"/><rect class="cls-1" x="189.44" y="210.08" width="109.18" height="39.42" rx="4.46" ry="4.46"/></svg>