<?xml version="1.0" encoding="utf-8"?>
<!-- Generator: Adobe Illustrator 26.4.1, SVG Export Plug-In . SVG Version: 6.00 Build 0)  -->
<svg version="1.1" id="Layer_1" xmlns="http://www.w3.org/2000/svg" xmlns:xlink="http://www.w3.org/1999/xlink" x="0px" y="0px"
	 viewBox="0 0 512 512" style="enable-background:new 0 0 512 512;" xml:space="preserve">
<style type="text/css">
	.st0{fill:#FC80FE;}
	.st1{fill:#252423;}
</style>
<g>
	<path class="st0" d="M256.8,397.3c-9.8,0-19.1-4.5-24.9-12L47.4,162.3l-0.2-0.2c-7-9.1-8.2-21.1-3.2-31.3c4.9-9.9,14.7-16,25.7-16
		h373.2c10.9,0,21,6.7,25.6,17c4.7,10.4,2.8,22.2-4.8,30.9l-182,222.6C275.9,392.8,266.6,397.3,256.8,397.3z"/>
	<path class="st1" d="M442.9,129.7c10.6,0,17.9,13.7,9.4,23.2L269.9,376c-3.1,4.2-8.1,6.3-13.1,6.3c-5,0-10-2.1-13.2-6.3L59.1,152.9
		c-7.3-9.5-1-23.2,10.6-23.2H442.9 M213.1,235.2H247h17.8h34.1v-17.9h-34.1H247h-33.9V235.2 M442.9,99.7H69.7
		c-16.7,0-31.7,9.3-39.1,24.4c-7.6,15.4-5.8,33.4,4.7,47.1l0.3,0.4L36,172l184.1,222.7c8.7,11,22.3,17.6,36.6,17.6
		c14.4,0,28-6.6,36.7-17.7l181.8-222.3c11.3-13.1,14-31,7-46.7C475.1,109.9,459.7,99.7,442.9,99.7L442.9,99.7z"/>
</g>
</svg>
