<?xml version="1.0" encoding="utf-8"?>
<!-- Generator: Adobe Illustrator 26.4.1, SVG Export Plug-In . SVG Version: 6.00 Build 0)  -->
<svg version="1.1" id="Layer_1" xmlns="http://www.w3.org/2000/svg" xmlns:xlink="http://www.w3.org/1999/xlink" x="0px" y="0px"
	 viewBox="0 0 512 512" style="enable-background:new 0 0 512 512;" xml:space="preserve">
<style type="text/css">
	.st0{fill:#30CFDC;}
	.st1{fill:#252423;}
</style>
<g>
	<path class="st0" d="M69.1,397.5c-10.9,0-20.9-6.7-25.6-17c-4.7-10.4-2.9-22.2,4.6-30.9l182-223.1c5.8-7.6,15.1-12,24.9-12
		s19.1,4.5,24.9,12L464.3,350l0.1,0.2c7,9,8.3,21,3.4,31.2c-4.8,10-14.6,16.2-25.6,16.3h-0.1h-373V397.5z"/>
	<path class="st1" d="M255.2,129.5c5,0,10,2.1,13.2,6.3l184.5,223.5c7.4,9.5,1,23.1-10.5,23.2H69.1c-10.5,0-17.9-13.8-9.5-23.2
		L242,135.8C245.2,131.6,250.2,129.5,255.2,129.5 M213.1,294.7h34.1v33.9H265v-33.9h33.9v-17.9H265v-34.1h-17.8v34.1h-34.1V294.7
		 M255.2,99.5c-14.4,0-28.1,6.6-36.7,17.7L36.7,340c-11.3,13.1-13.9,30.9-6.8,46.7c7,15.7,22.5,25.9,39.2,25.9h373.2h0.1h0.1
		c16.7-0.1,31.7-9.6,39-24.8c7.4-15.4,5.5-33.4-5.1-46.9l-0.2-0.3l-0.3-0.3L291.8,117.1C283.2,106,269.5,99.5,255.2,99.5L255.2,99.5
		z"/>
</g>
</svg>
