<?xml version="1.0" standalone="no"?>
<!DOCTYPE svg PUBLIC "-//W3C//DTD SVG 20010904//EN"
 "http://www.w3.org/TR/2001/REC-SVG-20010904/DTD/svg10.dtd">
<svg version="1.0" xmlns="http://www.w3.org/2000/svg"
 width="1250.000000pt" height="1250.000000pt" viewBox="0 0 1250.000000 1250.000000"
 preserveAspectRatio="xMidYMid meet">
<metadata>
Created by potrace 1.14, written by Peter Selinger 2001-2017
</metadata>
<g transform="translate(0.000000,1250.000000) scale(0.100000,-0.100000)"
fill="#000000" stroke="none">
<path d="M1360 10438 c-262 -51 -451 -124 -625 -241 -424 -285 -675 -752 -677
-1259 -1 -88 8 -209 17 -253 3 -11 7 -31 9 -45 16 -97 71 -260 125 -375 186
-390 557 -698 970 -805 85 -22 93 -24 161 -35 25 -3 58 -9 74 -11 43 -7 264
-7 326 0 326 38 629 175 868 394 14 12 28 22 32 22 4 0 124 -67 265 -150 142
-82 259 -150 260 -150 1 0 55 -31 119 -70 65 -38 119 -70 122 -70 2 0 33 -18
67 -39 34 -21 161 -96 282 -166 121 -70 234 -136 250 -146 17 -11 44 -26 60
-34 17 -9 44 -24 60 -34 42 -26 355 -208 537 -313 43 -25 76 -47 74 -49 -4 -4
-8 -31 -23 -139 -10 -70 -10 -307 -1 -385 9 -74 15 -104 34 -179 8 -32 14 -59
12 -60 -7 -5 -996 -581 -1028 -598 -19 -11 -131 -76 -248 -145 -118 -68 -228
-132 -245 -142 -79 -45 -458 -266 -506 -296 l-55 -33 -85 75 c-211 185 -480
318 -721 358 -19 3 -46 7 -60 10 -83 16 -326 22 -390 11 -14 -3 -45 -7 -70
-10 -25 -3 -60 -10 -78 -15 -18 -5 -33 -9 -35 -9 -7 3 -121 -29 -175 -48 -375
-141 -671 -405 -847 -755 -64 -127 -122 -310 -140 -439 -3 -25 -8 -62 -11 -83
-8 -58 -8 -233 1 -317 4 -41 18 -122 31 -179 123 -530 497 -938 1014 -1108
169 -55 305 -74 500 -69 158 4 205 8 260 22 14 3 39 8 55 11 70 11 248 79 355
135 412 214 695 590 791 1048 30 145 36 374 13 527 -10 62 -15 114 -13 116 4
3 238 140 299 175 19 10 130 75 245 142 116 68 224 131 241 140 17 10 62 37
99 59 37 23 68 41 70 41 2 0 49 27 105 60 56 33 105 60 109 60 4 0 12 5 19 12
7 7 36 26 66 43 71 40 202 115 356 205 167 98 211 123 375 218 l140 81 40 -34
c218 -185 507 -312 795 -350 95 -13 320 -13 395 0 183 30 321 72 460 140 112
54 128 64 243 148 282 206 495 527 578 872 43 179 49 381 20 597 -31 223 -145
483 -302 689 -69 90 -204 223 -284 279 -19 14 -37 28 -40 31 -3 3 -39 26 -80
52 -179 111 -415 192 -616 214 -129 14 -345 8 -444 -12 -14 -3 -38 -8 -54 -11
-232 -42 -517 -188 -708 -363 -36 -34 -68 -61 -71 -61 -2 0 -110 61 -238 137
-129 75 -243 141 -254 147 -22 12 -260 151 -285 166 -8 5 -40 24 -70 41 -30
18 -68 40 -85 49 -52 30 -318 186 -370 217 -27 16 -57 32 -65 36 -8 4 -31 17
-50 28 -82 49 -227 134 -396 232 -276 160 -265 152 -254 184 34 105 49 401 28
557 -54 402 -276 774 -608 1022 -131 98 -401 227 -515 247 -16 3 -61 13 -100
22 -80 19 -429 28 -505 13z"/>
<path d="M8027 3741 c-41 -9 -97 -58 -117 -103 -16 -37 -18 -89 -18 -712 0
-721 -1 -709 51 -764 12 -13 36 -31 52 -40 28 -16 198 -17 2167 -18 2331 -1
2170 -5 2226 54 58 60 55 27 55 767 0 678 0 680 -22 722 -12 25 -39 55 -63 70
l-42 28 -2130 1 c-1172 0 -2143 -2 -2159 -5z"/>
</g>
</svg>
