<?xml version="1.0" encoding="utf-8"?>
<!-- Generator: Adobe Illustrator 26.4.1, SVG Export Plug-In . SVG Version: 6.00 Build 0)  -->
<svg version="1.1" id="Layer_1" xmlns="http://www.w3.org/2000/svg" xmlns:xlink="http://www.w3.org/1999/xlink" x="0px" y="0px"
	 viewBox="0 0 300 300" style="enable-background:new 0 0 300 300;" xml:space="preserve">
<style type="text/css">
	.st0{fill:#00599C;}
	.st1{fill:#004482;}
	.st2{fill:#659AD2;}
	.st3{fill:#FFFFFF;}
</style>
<g>
	<path class="st0" d="M278,223.9c2.1-3.6,3.3-7.6,3.3-11.2V87.3c0-3.6-1.3-7.6-3.3-11.2L150,150L278,223.9z"/>
	<path class="st1" d="M161.4,295.1l108.6-62.7c3.1-1.8,6-4.9,8-8.5L150,150L22,223.9c2.1,3.6,4.9,6.7,8,8.5l108.6,62.7
		C144.9,298.7,155.1,298.7,161.4,295.1z"/>
	<path class="st2" d="M278,76.1c-2.1-3.6-4.9-6.7-8-8.5L161.4,4.9c-6.3-3.6-16.5-3.6-22.7,0L30.1,67.6c-6.3,3.6-11.4,12.5-11.4,19.7
		v125.4c0,3.6,1.3,7.6,3.3,11.2L150,150L278,76.1z"/>
	<g>
		<path class="st3" d="M150,237.5c-48.3,0-87.5-39.3-87.5-87.5s39.3-87.5,87.5-87.5c31.1,0,60.2,16.8,75.8,43.7l-37.9,21.9
			c-7.8-13.5-22.3-21.9-37.9-21.9c-24.1,0-43.8,19.6-43.8,43.8c0,24.1,19.6,43.8,43.8,43.8c15.6,0,30.1-8.4,37.9-21.9l37.9,21.9
			C210.2,220.8,181.1,237.5,150,237.5z"/>
	</g>
	<g>
		<polygon class="st3" points="237.5,145.1 227.8,145.1 227.8,135.4 218.1,135.4 218.1,145.1 208.4,145.1 208.4,154.9 218.1,154.9 
			218.1,164.6 227.8,164.6 227.8,154.9 237.5,154.9 		"/>
	</g>
	<g>
		<polygon class="st3" points="274,145.1 264.3,145.1 264.3,135.4 254.6,135.4 254.6,145.1 244.8,145.1 244.8,154.9 254.6,154.9 
			254.6,164.6 264.3,164.6 264.3,154.9 274,154.9 		"/>
	</g>
</g>
</svg>
