<?xml version="1.0" encoding="utf-8"?>
<!-- Generator: Adobe Illustrator 26.4.1, SVG Export Plug-In . SVG Version: 6.00 Build 0)  -->
<svg version="1.1" id="Layer_1" xmlns="http://www.w3.org/2000/svg" xmlns:xlink="http://www.w3.org/1999/xlink" x="0px" y="0px"
	 viewBox="0 0 300 300" style="enable-background:new 0 0 300 300;" xml:space="preserve">
<style type="text/css">
	.st0{fill:none;}
</style>
<g>
	<path id="cobol--language_1_" d="M288.1,291.4H11.9v-6.6h276.2V291.4z M291.4,223.7V11.9c0-1.8-1.5-3.3-3.3-3.3H11.9
		c-1.8,0-3.3,1.5-3.3,3.3v211.8c0,1.8,1.5,3.3,3.3,3.3h276.2C290,227,291.4,225.5,291.4,223.7z M15.2,15.2h269.6v205.2H15.2V15.2z
		 M51.4,141.7c9.5,0,16-4.8,19.7-12.7l-7.1-4.3c-2,5.3-6.1,9.1-12.6,9.1c-8.4,0-13.5-6.1-13.5-16.2v-8.3c0-10.1,5.2-16.2,13.5-16.2
		c6.3,0,10.2,3.4,12.1,8.5l7.4-4.1c-3.7-8.1-10-12.4-19.5-12.4c-14.2,0-22.9,9.9-22.9,28.3C28.4,131.8,37.1,141.7,51.4,141.7z
		 M100.6,141.7c14.2,0,23.6-9.9,23.6-28.2c0-18.4-9.3-28.3-23.6-28.3S77,95.1,77,113.5C77,131.9,86.3,141.7,100.6,141.7z
		 M100.6,133.8c-8.5,0-14.1-6.1-14.1-16v-8.6c0-9.9,5.6-16,14.1-16s14.1,6.1,14.1,16v8.6C114.7,127.7,109,133.8,100.6,133.8z
		 M135.2,140.8h26.6c8.1,0,14.1-6.9,14.1-15.7c0-9.2-7-12.6-11.4-12.8v-0.5c4.5-0.4,9.5-3.4,9.5-11.6c0-8.5-5.6-14.1-14.6-14.1
		h-24.2C135.2,86.1,135.2,140.8,135.2,140.8z M144,93.7h13.7c4.3,0,6.9,2.4,6.9,6.5v2.5c0,4.2-2.6,6.5-6.9,6.5H144V93.7z M144,116.6
		h15.2c4.5,0,7.4,2.5,7.4,7v2.7c0,4.5-2.8,7-7.4,7H144V116.6z M207.9,141.7c14.2,0,23.6-9.9,23.6-28.2c0-18.4-9.3-28.3-23.6-28.3
		s-23.6,9.9-23.6,28.3C184.3,131.9,193.6,141.7,207.9,141.7z M207.9,133.8c-8.5,0-14.1-6.1-14.1-16v-8.6c0-9.9,5.6-16,14.1-16
		s14.1,6.1,14.1,16v8.6C222,127.7,216.3,133.8,207.9,133.8z M273.6,140.8V133h-22.2V86.1h-8.8v54.6
		C242.5,140.8,273.6,140.8,273.6,140.8z"/>
	<rect id="_Transparent_Rectangle" x="2.7" y="2.7" class="st0" width="294.7" height="294.7"/>
</g>
</svg>
