<?xml version="1.0" encoding="utf-8"?>
<!-- Generator: Adobe Illustrator 26.4.1, SVG Export Plug-In . SVG Version: 6.00 Build 0)  -->
<svg version="1.1" id="Layer_1" xmlns="http://www.w3.org/2000/svg" xmlns:xlink="http://www.w3.org/1999/xlink" x="0px" y="0px"
	 viewBox="0 0 300 300" style="enable-background:new 0 0 300 300;" xml:space="preserve">
<style type="text/css">
	.st0{fill:#264DE4;}
	.st1{fill:#2965F1;}
	.st2{fill:#EBEBEB;}
	.st3{fill:#FFFFFF;}
</style>
<g id="layer1" transform="translate(-193.633,-276.3622)">
	<g id="g3013" transform="translate(119,276.3622)">
		<polygon id="polygon2989" class="st0" points="330.9,58.9 311.6,275.9 224.5,300 137.7,275.9 118.4,58.9 		"/>
		<polygon id="polygon2991" class="st1" points="295,262.1 311.5,76.7 224.6,76.7 224.6,281.6 		"/>
		<polygon id="polygon2993" class="st2" points="162.7,157.2 165.1,183.8 224.6,183.8 224.6,157.2 		"/>
		<polygon id="polygon2995" class="st2" points="224.6,103.3 224.5,103.3 157.9,103.3 160.3,129.9 224.6,129.9 		"/>
		<polygon id="polygon2997" class="st2" points="224.6,254 224.6,226.3 224.5,226.3 194.9,218.3 193,197.1 178.6,197.1 166.3,197.1 
			170,238.9 224.5,254 		"/>
		<path id="path2999" d="M168.4,0h32.2v13.5h-18.8v13.5h18.8v13.5h-32.2V0z"/>
		<path id="path3001" d="M207.1,0h32.2v11.7h-18.8V14h18.8v27h-32.2V28.7h18.8v-2.3h-18.8V0z"/>
		<path id="path3003" d="M245.7,0H278v11.7h-18.8V14H278v27h-32.2V28.7h18.8v-2.3h-18.8V0z"/>
		<polygon id="polygon3005" class="st3" points="257.3,183.8 254.2,218.3 224.5,226.3 224.5,254 279.1,238.9 279.5,234.4 
			285.7,164.3 286.4,157.2 291.2,103.3 224.5,103.3 224.5,129.9 262,129.9 259.6,157.2 224.5,157.2 224.5,183.8 		"/>
	</g>
</g>
</svg>
