<?xml version="1.0" encoding="utf-8"?>
<!-- Generator: Adobe Illustrator 26.4.1, SVG Export Plug-In . SVG Version: 6.00 Build 0)  -->
<svg version="1.1" id="Layer_1" xmlns="http://www.w3.org/2000/svg" xmlns:xlink="http://www.w3.org/1999/xlink" x="0px" y="0px"
	 viewBox="0 0 300 300" style="enable-background:new 0 0 300 300;" xml:space="preserve">
<style type="text/css">
	.st0{fill:#734F96;}
	.st1{fill:#FFFFFF;}
</style>
<g>
	<g id="layer101" transform="translate(.142 -7.901)">
		<path id="path2" class="st0" d="M47.5,302.7C30.4,302.7,5,272.8,5,260V55.3C5,38,35,13.1,47.9,13.1l205,0
			c17.7,0,41.7,28.9,41.7,42.6v204.9c0,20.2-27,42.1-42.3,42.1L47.5,302.7z"/>
	</g>
	<g id="layer102" transform="translate(.142 -7.901)">
		<path id="path5" class="st1" d="M44.8,246.4l11.1-0.7c22.6-1.5,22.4-1.4,23.5-19.1c1-16.8-0.3-148.4-1-151.1
			c-1.2-4.3-5.9-6.8-19.9-6.8l-13.7-0.1V44H256v94.4l-24.9-0.4c-0.2-0.2-0.9-6.9-1.4-13c-2.6-28.8-9.1-45.4-21.6-51.9
			c-6.6-3.4-16.9-4.4-49.8-4.4l-30.7,0v70.8h5.5c9.2-0.1,20.9-2.3,24.8-4.7c5-3.1,9.2-11.9,10.7-22.6c1.1-7.8,2-13.6,2-13.6l24.2,0
			v112.4h-25v-4.4c0-7.3-3.4-24.2-5.8-29.3c-3.7-7.8-10.1-10.6-28.2-12.3l-8.3-0.8l0.5,36.5c0.3,34.6,0.6,36.6,2.7,39.5
			c2.7,3.6,5.7,4.3,23.7,5.7l12.1,0.6l-0.1,24.8H44.8V246.4z"/>
	</g>
</g>
</svg>
