<?xml version="1.0" encoding="utf-8"?>
<!-- Generator: Adobe Illustrator 26.4.1, SVG Export Plug-In . SVG Version: 6.00 Build 0)  -->
<svg version="1.1" id="Layer_1" xmlns="http://www.w3.org/2000/svg" xmlns:xlink="http://www.w3.org/1999/xlink" x="0px" y="0px"
	 viewBox="0 0 300 300" style="enable-background:new 0 0 300 300;" xml:space="preserve">
<style type="text/css">
	.st0{fill:#E44D26;}
	.st1{fill:#F16529;}
	.st2{fill:#EBEBEB;}
	.st3{fill:#FFFFFF;}
</style>
<g>
	<path d="M63.7,0.4h13.4v13.3h12.4V0.4H103v40.3H89.6V27.2H77.3v13.4H63.7 M120.8,13.8h-11.9V0.4h37.2v13.4h-11.9v26.9h-13.4
		 M152,0.4h14.1l8.7,14.2l8.7-14.2h14.1v40.3h-13.4v-20l-9.4,14.5l-9.4-14.5v20H152 M204.2,0.4h13.4v27h19.1v13.3h-32.5"/>
	<path class="st0" d="M63.3,275.7L44,59.2H256l-19.3,216.4l-86.9,24.1"/>
	<path class="st1" d="M150,281.2V76.9h86.7l-16.5,184.7"/>
	<path class="st2" d="M83.4,103.4H150V130h-37.5l2.5,27.2H150v26.5H90.6 M91.8,196.9h26.7l1.9,21.2l29.7,7.9v27.7l-54.5-15.2"/>
	<path class="st3" d="M216.4,103.4h-66.5V130h64.1 M211.6,157.1h-61.7v26.5h32.7l-3.1,34.5l-29.6,7.9v27.6l54.4-15.1"/>
</g>
</svg>
