<?xml version="1.0" encoding="utf-8"?>
<!-- Generator: Adobe Illustrator 26.4.1, SVG Export Plug-In . SVG Version: 6.00 Build 0)  -->
<svg version="1.1" id="Layer_1" xmlns="http://www.w3.org/2000/svg" xmlns:xlink="http://www.w3.org/1999/xlink" x="0px" y="0px"
	 viewBox="0 0 300 300" style="enable-background:new 0 0 300 300;" xml:space="preserve">
<g id="g4" transform="translate(-44.632 -141.55)">
	<g id="g6" transform="matrix(8.3528 0 0 8.3119 -727.13 -3759.5)">
		<path id="path8" d="M95.2,482.2h5.3c1.6,0,2.7,0.5,3.4,1.4c0.7,0.9,0.9,2.1,0.7,3.6c-0.1,0.7-0.3,1.4-0.6,2.1
			c-0.3,0.7-0.7,1.3-1.3,1.8c-0.7,0.7-1.4,1.1-2.1,1.3c-0.8,0.2-1.5,0.3-2.3,0.3h-2.4l-0.8,3.8h-2.8L95.2,482.2 M97.6,484.4l-1.2,6
			c0.1,0,0.2,0,0.2,0h0.3c1.3,0,2.3-0.1,3.2-0.4c0.8-0.3,1.4-1.2,1.7-2.9c0.2-1.4,0-2.2-0.7-2.4c-0.7-0.2-1.6-0.3-2.6-0.3
			c-0.2,0-0.3,0-0.5,0C97.8,484.4,97.7,484.4,97.6,484.4L97.6,484.4"/>
		<path id="path10" d="M107.8,478.4h2.7l-0.8,3.8h2.5c1.4,0,2.4,0.3,3,0.8c0.7,0.5,0.9,1.5,0.6,3l-1.3,6.6h-2.8l1.3-6.3
			c0.1-0.7,0.1-1.1-0.1-1.4c-0.2-0.3-0.7-0.4-1.4-0.4l-2.2,0l-1.6,8.2h-2.7L107.8,478.4"/>
		<path id="path12" d="M118.8,482.2h5.3c1.6,0,2.7,0.5,3.4,1.4c0.7,0.9,0.9,2.1,0.7,3.6c-0.1,0.7-0.3,1.4-0.6,2.1
			c-0.3,0.7-0.7,1.3-1.3,1.8c-0.7,0.7-1.4,1.1-2.1,1.3c-0.8,0.2-1.5,0.3-2.3,0.3h-2.4l-0.8,3.8H116L118.8,482.2 M121.1,484.4l-1.2,6
			c0.1,0,0.2,0,0.2,0h0.3c1.3,0,2.3-0.1,3.2-0.4c0.8-0.3,1.4-1.2,1.7-2.9c0.2-1.4,0-2.2-0.7-2.4c-0.7-0.2-1.6-0.3-2.6-0.3
			c-0.2,0-0.3,0-0.5,0C121.4,484.4,121.3,484.4,121.1,484.4L121.1,484.4"/>
	</g>
</g>
</svg>
