<?xml version="1.0" encoding="utf-8"?>
<!-- Generator: Adobe Illustrator 26.4.1, SVG Export Plug-In . SVG Version: 6.00 Build 0)  -->
<svg version="1.1" id="Layer_1" xmlns="http://www.w3.org/2000/svg" xmlns:xlink="http://www.w3.org/1999/xlink" x="0px" y="0px"
	 viewBox="0 0 300 300" style="enable-background:new 0 0 300 300;" xml:space="preserve">
<style type="text/css">
	.st0{fill:url(#path1948_00000023275162722571318760000011726048478859838370_);}
	.st1{fill:url(#path1950_00000055698381801702052930000010494112719330646939_);}
</style>
<g>
	
		<linearGradient id="path1948_00000072972704206309536820000017411277791394157188_" gradientUnits="userSpaceOnUse" x1="15.8438" y1="267.1166" x2="306.8411" y2="16.7526" gradientTransform="matrix(0.5625 0 0 -0.568 -14.5537 160.2572)">
		<stop  offset="0" style="stop-color:#5A9FD4"/>
		<stop  offset="1" style="stop-color:#306998"/>
	</linearGradient>
	<path id="path1948" style="fill:url(#path1948_00000072972704206309536820000017411277791394157188_);" d="M148.2,0
		C136,0.1,124.3,1.1,114,2.9C83.7,8.3,78.2,19.5,78.2,40.1v27.3h71.6v9.1H78.2H51.4c-20.8,0-39,12.5-44.7,36.3
		c-6.6,27.3-6.9,44.3,0,72.7c5.1,21.2,17.2,36.3,38,36.3h24.6v-32.7c0-23.6,20.4-44.5,44.7-44.5h71.5c19.9,0,35.8-16.4,35.8-36.4
		V40.1c0-19.4-16.4-34-35.8-37.2C173.2,0.9,160.5-0.1,148.2,0z M109.5,21.9c7.4,0,13.4,6.1,13.4,13.7c0,7.5-6,13.6-13.4,13.6
		c-7.4,0-13.4-6.1-13.4-13.6C96.1,28.1,102.1,21.9,109.5,21.9z"/>
	
		<linearGradient id="path1950_00000054982520355225297770000014162522094489692840_" gradientUnits="userSpaceOnUse" x1="419.3426" y1="-134.7782" x2="315.4276" y2="12.2436" gradientTransform="matrix(0.5625 0 0 -0.568 -14.5537 160.2572)">
		<stop  offset="0" style="stop-color:#FFD43B"/>
		<stop  offset="1" style="stop-color:#FFE873"/>
	</linearGradient>
	<path id="path1950" style="fill:url(#path1950_00000054982520355225297770000014162522094489692840_);" d="M230.2,76.5v31.8
		c0,24.6-20.9,45.4-44.7,45.4H114c-19.6,0-35.8,16.8-35.8,36.4v68.2c0,19.4,16.9,30.8,35.8,36.4c22.7,6.7,44.4,7.9,71.5,0
		c18-5.2,35.8-15.7,35.8-36.4v-27.3h-71.5v-9.1h71.5h35.8c20.8,0,28.6-14.5,35.8-36.3c7.5-22.4,7.2-44,0-72.7
		c-5.1-20.7-15-36.3-35.8-36.3L230.2,76.5z M190,249.1c7.4,0,13.4,6.1,13.4,13.6c0,7.5-6,13.7-13.4,13.7c-7.4,0-13.4-6.1-13.4-13.7
		C176.6,255.2,182.6,249.1,190,249.1z"/>
</g>
</svg>
